<?xml version="1.0" encoding="iso-8859-1"?>
<!-- Uploaded to: SVG Repo, www.svgrepo.com, Generator: SVG Repo Mixer Tools -->
<svg height="800px" width="800px" version="1.1" id="Layer_1" xmlns="http://www.w3.org/2000/svg" xmlns:xlink="http://www.w3.org/1999/xlink" 
	 viewBox="0 0 512 512" xml:space="preserve">
<path style="fill:#32BEA6;" d="M469.328,512H42.672C19.2,512,0,492.8,0,469.328V42.672C0,19.2,19.2,0,42.672,0h426.656
	C492.8,0,512,19.2,512,42.672v426.656C512,492.8,492.8,512,469.328,512z"/>
<path style="fill:#FFFFFF;" d="M375.8,393.04c-15.64,8.728-42.312,17.464-71.736,17.464c-45.072,0-86.44-18.408-112.192-52.424
	c-12.44-15.64-21.608-35.4-25.752-59.776h-29.904V265.64h25.288c0-2.296,0-5.056,0-7.824c0-4.584,0.472-9.168,0.472-13.792h-25.752
	v-32.632h30.816c5.968-24.848,17.024-45.984,31.72-63.008c26.224-29.432,63.008-46.896,106.224-46.896
	c28.048,0,52.424,6.44,68.976,13.792l-12.88,52.424c-11.936-5.056-30.784-11.056-51.04-11.056c-22.048,0-42.312,7.384-56.536,24.848
	c-6.44,7.352-11.496,17.936-14.728,29.904h114.52v32.632H231.848c-0.44,4.616-0.44,9.672-0.44,14.256c0,2.768,0,4.584,0,7.352
	H353.28v32.664H237.848c3.2,13.792,8.264,24.376,15.168,32.192c14.696,16.552,36.344,23.432,59.336,23.432
	c21.136,0,42.752-6.88,52.424-11.936L375.8,393.04z"/>
</svg>